<svg width="211" height="215" viewBox="0 0 211 215" fill="none" xmlns="http://www.w3.org/2000/svg">
<g clip-path="url(#clip0_88_678)">
<path d="M14.672 85.6778H13.625V54.9552L44.5372 37.2949L45.0607 38.1832L14.672 55.5822V85.6778Z" fill="#B33636"/>
<path d="M14.6718 85.6836H13.625V90.3332H14.6718V85.6836Z" fill="#B33636"/>
<path d="M42.1815 176.41L13.625 160.082V124.709H14.672V159.455L42.705 175.521L42.1815 176.41Z" fill="#B33636"/>
<path d="M42.6748 175.513L42.1543 176.42L44.493 177.758L45.0135 176.851L42.6748 175.513Z" fill="#B33636"/>
<path d="M105.05 212.619L74.1641 194.932L74.6876 194.044L105.05 211.417L137.088 193.104L137.611 193.992L105.05 212.619Z" fill="#B33636"/>
<path d="M166.432 177.746L165.908 176.857L196.271 159.458V127.926H197.318V160.085L197.056 160.216L166.432 177.746Z" fill="#B33636"/>
<path d="M197.318 90.3261H196.271V55.5802L165.908 38.1812L166.432 37.293L197.318 54.9533V90.3261Z" fill="#B33636"/>
<path d="M137.929 21.937L105.891 3.62361L73.8536 21.937L73.3301 21.0488L105.891 2.42188L138.452 21.0488L137.929 21.937Z" fill="#B33636"/>
<path d="M168.762 176.41L168.238 175.521L196.271 159.455V124.709H197.318V160.082L197.056 160.212L168.762 176.41Z" fill="#B33636"/>
<path d="M210.162 107.524L157.813 197.367H53.1148L0.765625 107.524L9.82203 91.9541L53.1148 17.6816H157.813L210.162 107.524Z" fill="#B33636"/>
<path d="M58.4583 187.837H66.3631L65.2114 187.811H58.6939L11.9199 107.53L20.0079 93.6055L58.6939 27.2227H152.242L199.042 107.53L152.242 187.811H144.363" stroke="white" stroke-width="2.07323" stroke-miterlimit="10"/>
<path d="M77.8303 190.5C77.1499 190.657 76.4433 190.762 75.7628 190.762C74.1664 190.762 73.3027 189.847 73.3027 188.28V187.523C73.3027 185.955 74.1664 185.041 75.7628 185.041C76.4694 185.041 77.1499 185.145 77.8303 185.302C78.092 185.354 78.1444 185.433 78.1444 185.59V190.239C78.1444 190.37 78.1182 190.448 77.8303 190.5ZM76.5741 186.373C76.3124 186.347 76.0507 186.321 75.7628 186.321C75.0562 186.321 74.873 186.817 74.873 187.496V188.254C74.873 188.933 75.0562 189.455 75.7628 189.455C76.0245 189.455 76.3124 189.429 76.5741 189.403V186.373Z" fill="white"/>
<path d="M90.1483 188.385H87.0078V188.411C87.0078 188.959 87.2433 189.455 88.0284 189.455C88.6565 189.455 89.5202 189.403 89.9127 189.377H89.9389C90.0436 189.377 90.1221 189.429 90.1221 189.534V190.265C90.1221 190.422 90.0959 190.474 89.9127 190.526C89.2585 190.683 88.578 190.762 87.8976 190.762C86.7199 190.762 85.4375 190.135 85.4375 188.28V187.601C85.4375 186.034 86.3535 185.041 87.9237 185.041C89.5202 185.041 90.3315 186.138 90.3315 187.601V188.176C90.3576 188.28 90.2791 188.385 90.1483 188.385ZM88.8136 187.366C88.8136 186.634 88.4733 186.295 87.9237 186.295C87.3742 186.295 87.0078 186.661 87.0078 187.366V187.418H88.7874V187.366H88.8136Z" fill="white"/>
<path d="M100.559 186.247H99.2236V190.553C99.2236 190.658 99.1189 190.762 99.0142 190.762H97.8364C97.7317 190.762 97.627 190.658 97.627 190.553V184.806C97.627 183.474 98.5431 183.16 99.5377 183.16C99.9041 183.16 100.244 183.186 100.611 183.239C100.716 183.265 100.768 183.291 100.768 183.343V184.153C100.768 184.257 100.742 184.31 100.637 184.31H99.6162C99.3021 184.31 99.2498 184.493 99.2498 184.78V185.045H100.585C100.689 185.045 100.794 185.124 100.794 185.254V186.038C100.742 186.169 100.663 186.247 100.559 186.247Z" fill="white"/>
<path d="M112.773 188.385H109.658V188.411C109.658 188.959 109.894 189.455 110.679 189.455C111.307 189.455 112.171 189.403 112.563 189.377H112.589C112.694 189.377 112.773 189.429 112.773 189.534V190.265C112.773 190.422 112.746 190.474 112.563 190.526C111.909 190.683 111.228 190.762 110.548 190.762C109.37 190.762 108.088 190.135 108.088 188.28V187.601C108.088 186.034 109.004 185.041 110.574 185.041C112.171 185.041 112.982 186.138 112.982 187.601V188.176C112.982 188.28 112.903 188.385 112.773 188.385ZM111.438 187.366C111.438 186.634 111.098 186.295 110.548 186.295C109.998 186.295 109.632 186.661 109.632 187.366V187.418H111.412V187.366H111.438Z" fill="white"/>
<path d="M122.786 190.762H122.629C122.001 190.762 120.273 190.579 120.273 188.306L120.274 185.25C120.274 185.145 120.352 185.041 120.457 185.041H121.661C121.766 185.041 121.87 185.145 121.87 185.25L121.87 188.306C121.87 189.22 122.158 189.429 122.629 189.429H122.76C123.231 189.429 123.519 189.22 123.519 188.306L123.519 185.25C123.519 185.145 123.598 185.041 123.728 185.041H124.932C125.037 185.041 125.116 185.145 125.116 185.25L125.115 188.306C125.115 190.579 123.388 190.762 122.786 190.762Z" fill="white"/>
<path d="M135.039 191.007C134.777 191.007 134.489 190.98 134.228 190.926V192.455C134.228 192.563 134.149 192.644 134.018 192.644H132.84C132.736 192.644 132.631 192.563 132.631 192.455V185.608C132.631 185.446 132.657 185.392 132.945 185.311C133.625 185.149 134.332 185.041 135.039 185.041C136.636 185.041 137.499 185.986 137.499 187.606V188.388C137.499 190.008 136.688 191.007 135.039 191.007ZM135.903 187.632C135.903 186.931 135.719 186.418 135.039 186.418C134.777 186.418 134.489 186.418 134.228 186.472V189.603C134.489 189.63 134.751 189.657 135.039 189.657C135.746 189.657 135.903 189.117 135.903 188.415V187.632Z" fill="white"/>
<path d="M117.605 150.127H102.136C100.88 150.127 100.068 149.108 100.068 147.828V96.8592C100.068 84.0583 95.8016 80.9757 86.3263 80.9757C81.5886 80.9757 76.4059 81.2108 72.82 81.6549V147.854C72.8723 149.082 71.9038 150.101 70.6998 150.127C70.6736 150.127 70.6474 150.127 70.6213 150.127H55.2827C54.0525 150.127 53.084 149.134 53.084 147.906C53.084 147.88 53.084 147.854 53.084 147.828V73.1906C53.084 68.0441 54.4713 66.7902 58.9734 66.1109C65.0983 65.1966 78.2382 64.1777 84.1276 64.1777C106.507 64.1777 119.778 70.3431 119.778 96.8853V147.88C119.83 149.108 118.862 150.127 117.658 150.153C117.658 150.127 117.632 150.127 117.605 150.127Z" fill="white"/>
<path d="M155.348 79.0599H139.591C138.185 79.0599 137.014 77.9225 137.014 76.4934V66.7443C137.014 65.3443 138.185 64.1777 139.591 64.1777H155.348C156.754 64.1777 157.925 65.3152 157.925 66.7443V76.4934C157.925 77.9225 156.783 79.0599 155.348 79.0599ZM155.349 150.153H139.592C138.186 150.153 137.014 149.015 137.014 147.586V91.2323C137.014 89.8324 138.186 88.6658 139.592 88.6658C139.592 88.6658 153.943 88.6658 155.349 88.6658C156.755 88.6658 157.926 89.8032 157.926 91.2323V147.615C157.926 149.015 156.784 150.153 155.349 150.153Z" fill="white"/>
</g>
<defs>
<clipPath id="clip0_88_678">
<rect width="209.397" height="213.543" fill="white" transform="translate(0.720703 0.544922)"/>
</clipPath>
</defs>
</svg>
